<svg xmlns="http://www.w3.org/2000/svg">
  <symbol id="icon-endpoint" viewBox="0 0 24 24">
    <path d="M4 7h16v10H4z"/>
    <path d="M8 11h8"/>
    <path d="M8 14h5"/>
  </symbol>
  <symbol id="icon-bucket" viewBox="0 0 24 24">
    <path d="M6 8h12l-1 11H7z"/>
    <path d="M8 8a4 4 0 0 1 8 0"/>
    <path d="M9 12h6"/>
  </symbol>
  <symbol id="icon-credentials" viewBox="0 0 24 24">
    <circle cx="8" cy="9" r="3"/>
    <path d="M4 19a4 4 0 0 1 8 0"/>
    <path d="M14 12h6"/>
    <path d="M18 12v3"/>
    <path d="M20 12v2"/>
  </symbol>
  <symbol id="icon-policy" viewBox="0 0 24 24">
    <path d="M12 3l7 3v5c0 5-3 8-7 10-4-2-7-5-7-10V6z"/>
    <path d="M9 12l2 2 4-5"/>
  </symbol>
  <symbol id="icon-metadata" viewBox="0 0 24 24">
    <ellipse cx="12" cy="6" rx="7" ry="3"/>
    <path d="M5 6v6c0 1.7 3.1 3 7 3s7-1.3 7-3V6"/>
    <path d="M5 12v6c0 1.7 3.1 3 7 3s7-1.3 7-3v-6"/>
  </symbol>
  <symbol id="icon-protection" viewBox="0 0 24 24">
    <path d="M12 3l7 4v5c0 4.5-2.8 7.5-7 9-4.2-1.5-7-4.5-7-9V7z"/>
    <path d="M8 12h8"/>
    <path d="M12 8v8"/>
  </symbol>
  <symbol id="icon-encryption" viewBox="0 0 24 24">
    <rect x="6" y="10" width="12" height="10" rx="2"/>
    <path d="M9 10V7a3 3 0 0 1 6 0v3"/>
    <path d="M12 14v2"/>
  </symbol>
  <symbol id="icon-pvc" viewBox="0 0 24 24">
    <rect x="4" y="5" width="16" height="14" rx="2"/>
    <path d="M7 9h10"/>
    <path d="M7 13h6"/>
    <path d="M17 16h.01"/>
  </symbol>
  <symbol id="icon-audit" viewBox="0 0 24 24">
    <path d="M7 4h10v16H7z"/>
    <path d="M9 8h6"/>
    <path d="M9 12h6"/>
    <path d="M9 16h3"/>
    <circle cx="16" cy="16" r="2"/>
  </symbol>
  <symbol id="icon-lifecycle" viewBox="0 0 24 24">
    <path d="M7 7a7 7 0 0 1 10 0l2 2"/>
    <path d="M19 5v4h-4"/>
    <path d="M17 17a7 7 0 0 1-10 0l-2-2"/>
    <path d="M5 19v-4h4"/>
  </symbol>
  <symbol id="icon-metrics" viewBox="0 0 24 24">
    <path d="M4 19h16"/>
    <path d="M7 16v-4"/>
    <path d="M12 16V7"/>
    <path d="M17 16v-7"/>
    <path d="M6 7l4 3 3-4 5 3"/>
  </symbol>
  <symbol id="icon-operator" viewBox="0 0 24 24">
    <rect x="5" y="6" width="14" height="12" rx="2"/>
    <path d="M9 6V4"/>
    <path d="M15 6V4"/>
    <path d="M9 12h.01"/>
    <path d="M15 12h.01"/>
    <path d="M10 16h4"/>
  </symbol>
</svg>
